<mxfile host="app.diagrams.net" agent="Mozilla/5.0 (Windows NT 10.0; Win64; x64) AppleWebKit/537.36 (KHTML, like Gecko) Chrome/134.0.0.0 Safari/537.36 Edg/134.0.0.0" version="26.1.1">
  <diagram id="R2lEEEUBdFMjLlhIrx00" name="Page-1">
    <mxGraphModel dx="1234" dy="541" grid="1" gridSize="10" guides="1" tooltips="1" connect="1" arrows="1" fold="1" page="1" pageScale="1" pageWidth="850" pageHeight="1100" math="0" shadow="0" extFonts="Permanent Marker^https://fonts.googleapis.com/css?family=Permanent+Marker">
      <root>
        <mxCell id="0" />
        <mxCell id="1" parent="0" />
        <mxCell id="yxIj5-m4IPKq3bLtGAeh-4" value="Evidence&lt;div&gt;retrieval&lt;/div&gt;" style="shape=cube;whiteSpace=wrap;html=1;boundedLbl=1;backgroundOutline=1;darkOpacity=0.05;darkOpacity2=0.1;direction=south;" vertex="1" parent="1">
          <mxGeometry x="370" y="220" width="80" height="120" as="geometry" />
        </mxCell>
        <mxCell id="yxIj5-m4IPKq3bLtGAeh-5" value="Medical entity&lt;div&gt;extraction&lt;/div&gt;" style="shape=cube;whiteSpace=wrap;html=1;boundedLbl=1;backgroundOutline=1;darkOpacity=0.05;darkOpacity2=0.1;direction=south;" vertex="1" parent="1">
          <mxGeometry x="230" y="220" width="80" height="120" as="geometry" />
        </mxCell>
        <mxCell id="yxIj5-m4IPKq3bLtGAeh-20" style="edgeStyle=orthogonalEdgeStyle;rounded=0;orthogonalLoop=1;jettySize=auto;html=1;entryX=0;entryY=0;entryDx=380;entryDy=50;entryPerimeter=0;" edge="1" parent="1" source="yxIj5-m4IPKq3bLtGAeh-30" target="yxIj5-m4IPKq3bLtGAeh-17">
          <mxGeometry relative="1" as="geometry">
            <mxPoint x="730" y="80" as="targetPoint" />
            <Array as="points">
              <mxPoint x="725" y="110" />
            </Array>
          </mxGeometry>
        </mxCell>
        <mxCell id="yxIj5-m4IPKq3bLtGAeh-21" value="t" style="edgeLabel;html=1;align=center;verticalAlign=middle;resizable=0;points=[];" vertex="1" connectable="0" parent="yxIj5-m4IPKq3bLtGAeh-20">
          <mxGeometry x="1" y="-3" relative="1" as="geometry">
            <mxPoint x="-1" y="-1" as="offset" />
          </mxGeometry>
        </mxCell>
        <mxCell id="yxIj5-m4IPKq3bLtGAeh-33" style="edgeStyle=orthogonalEdgeStyle;rounded=0;orthogonalLoop=1;jettySize=auto;html=1;entryX=0.556;entryY=0.25;entryDx=0;entryDy=0;entryPerimeter=0;" edge="1" parent="1" source="yxIj5-m4IPKq3bLtGAeh-6" target="yxIj5-m4IPKq3bLtGAeh-30">
          <mxGeometry relative="1" as="geometry">
            <mxPoint x="730" y="280" as="targetPoint" />
            <Array as="points">
              <mxPoint x="725" y="280" />
              <mxPoint x="725" y="180" />
            </Array>
          </mxGeometry>
        </mxCell>
        <mxCell id="yxIj5-m4IPKq3bLtGAeh-6" value="Claim&lt;div&gt;verification&lt;/div&gt;" style="shape=cube;whiteSpace=wrap;html=1;boundedLbl=1;backgroundOutline=1;darkOpacity=0.05;darkOpacity2=0.1;direction=south;" vertex="1" parent="1">
          <mxGeometry x="510" y="220" width="80" height="120" as="geometry" />
        </mxCell>
        <mxCell id="yxIj5-m4IPKq3bLtGAeh-8" value="&lt;div&gt;&lt;br&gt;&lt;/div&gt;Database" style="strokeWidth=2;html=1;shape=mxgraph.flowchart.database;whiteSpace=wrap;" vertex="1" parent="1">
          <mxGeometry x="480" y="400" width="90" height="50" as="geometry" />
        </mxCell>
        <mxCell id="yxIj5-m4IPKq3bLtGAeh-9" value="" style="endArrow=none;dashed=1;html=1;dashPattern=1 3;strokeWidth=2;rounded=0;" edge="1" parent="1">
          <mxGeometry width="50" height="50" relative="1" as="geometry">
            <mxPoint x="190" y="180" as="sourcePoint" />
            <mxPoint x="615" y="180" as="targetPoint" />
          </mxGeometry>
        </mxCell>
        <mxCell id="yxIj5-m4IPKq3bLtGAeh-10" value="" style="endArrow=none;dashed=1;html=1;dashPattern=1 3;strokeWidth=2;rounded=0;" edge="1" parent="1">
          <mxGeometry width="50" height="50" relative="1" as="geometry">
            <mxPoint x="190" y="370" as="sourcePoint" />
            <mxPoint x="630" y="370" as="targetPoint" />
            <Array as="points">
              <mxPoint x="415" y="370" />
            </Array>
          </mxGeometry>
        </mxCell>
        <mxCell id="yxIj5-m4IPKq3bLtGAeh-11" value="" style="endArrow=none;dashed=1;html=1;dashPattern=1 3;strokeWidth=2;rounded=0;" edge="1" parent="1">
          <mxGeometry width="50" height="50" relative="1" as="geometry">
            <mxPoint x="190" y="180" as="sourcePoint" />
            <mxPoint x="190" y="370" as="targetPoint" />
          </mxGeometry>
        </mxCell>
        <mxCell id="yxIj5-m4IPKq3bLtGAeh-13" value="" style="endArrow=none;dashed=1;html=1;dashPattern=1 3;strokeWidth=2;rounded=0;" edge="1" parent="1">
          <mxGeometry width="50" height="50" relative="1" as="geometry">
            <mxPoint x="620" y="180" as="sourcePoint" />
            <mxPoint x="620" y="370" as="targetPoint" />
          </mxGeometry>
        </mxCell>
        <mxCell id="yxIj5-m4IPKq3bLtGAeh-14" style="edgeStyle=orthogonalEdgeStyle;rounded=0;orthogonalLoop=1;jettySize=auto;html=1;entryX=0;entryY=0;entryDx=120;entryDy=50;entryPerimeter=0;" edge="1" parent="1" source="yxIj5-m4IPKq3bLtGAeh-8" target="yxIj5-m4IPKq3bLtGAeh-4">
          <mxGeometry relative="1" as="geometry" />
        </mxCell>
        <mxCell id="yxIj5-m4IPKq3bLtGAeh-15" value="" style="shape=flexArrow;endArrow=classic;html=1;rounded=0;" edge="1" parent="1">
          <mxGeometry width="50" height="50" relative="1" as="geometry">
            <mxPoint x="310" y="288" as="sourcePoint" />
            <mxPoint x="370" y="288" as="targetPoint" />
          </mxGeometry>
        </mxCell>
        <mxCell id="yxIj5-m4IPKq3bLtGAeh-16" value="" style="shape=flexArrow;endArrow=classic;html=1;rounded=0;" edge="1" parent="1">
          <mxGeometry width="50" height="50" relative="1" as="geometry">
            <mxPoint x="450" y="290" as="sourcePoint" />
            <mxPoint x="510" y="290" as="targetPoint" />
          </mxGeometry>
        </mxCell>
        <mxCell id="yxIj5-m4IPKq3bLtGAeh-19" style="edgeStyle=orthogonalEdgeStyle;rounded=0;orthogonalLoop=1;jettySize=auto;html=1;entryX=0;entryY=0;entryDx=70;entryDy=80;entryPerimeter=0;" edge="1" parent="1">
          <mxGeometry relative="1" as="geometry">
            <mxPoint x="239" y="290" as="targetPoint" />
            <mxPoint x="90" y="150" as="sourcePoint" />
            <Array as="points">
              <mxPoint x="90" y="290" />
            </Array>
          </mxGeometry>
        </mxCell>
        <mxCell id="yxIj5-m4IPKq3bLtGAeh-17" value="Application interface" style="shape=cube;whiteSpace=wrap;html=1;boundedLbl=1;backgroundOutline=1;darkOpacity=0.05;darkOpacity2=0.1;" vertex="1" parent="1">
          <mxGeometry x="220" y="60" width="380" height="80" as="geometry" />
        </mxCell>
        <mxCell id="yxIj5-m4IPKq3bLtGAeh-28" value="" style="edgeStyle=orthogonalEdgeStyle;rounded=0;orthogonalLoop=1;jettySize=auto;html=1;entryX=0.444;entryY=1.2;entryDx=0;entryDy=0;entryPerimeter=0;exitX=-0.009;exitY=0.505;exitDx=0;exitDy=0;exitPerimeter=0;" edge="1" parent="1" source="yxIj5-m4IPKq3bLtGAeh-17" target="yxIj5-m4IPKq3bLtGAeh-24">
          <mxGeometry relative="1" as="geometry">
            <mxPoint x="90" y="250" as="targetPoint" />
            <mxPoint x="190" y="100" as="sourcePoint" />
            <Array as="points" />
          </mxGeometry>
        </mxCell>
        <mxCell id="yxIj5-m4IPKq3bLtGAeh-24" value="Input&amp;nbsp;&lt;div&gt;data&lt;/div&gt;" style="strokeWidth=2;html=1;shape=mxgraph.flowchart.direct_data;whiteSpace=wrap;" vertex="1" parent="1">
          <mxGeometry x="50" y="170" width="90" height="40" as="geometry" />
        </mxCell>
        <mxCell id="yxIj5-m4IPKq3bLtGAeh-30" value="Output&lt;div&gt;data&lt;/div&gt;" style="strokeWidth=2;html=1;shape=mxgraph.flowchart.direct_data;whiteSpace=wrap;" vertex="1" parent="1">
          <mxGeometry x="680" y="170" width="90" height="40" as="geometry" />
        </mxCell>
      </root>
    </mxGraphModel>
  </diagram>
</mxfile>
